{"title":"BBC Click 2015 02 28 Boston Startups 480p WebRip x265 HEVC-AuP","uid":11739210,"size":117694223,"categoryP":"video","categoryS":"tv_shows","magnet":"?xt=urn:btih:78613a07fb6c5217c8e2f9f157ec83f98dcc4a2e&amp;dn=BBC+Click+2015+02+28+Boston+Startups+480p+WebRip+x265+HEVC-AuP&amp;tr=udp%3A%2F%2Ftracker.openbittorrent.com%3A80&amp;tr=udp%3A%2F%2Fopen.demonii.com%3A1337&amp;tr=udp%3A%2F%2Ftracker.coppersurfer.tk%3A6969&amp;tr=udp%3A%2F%2Fexodus.desync.com%3A6969","seeders":1,"leechers":0,"uploader":"Anon_up","files":1,"time":1425696593,"description":"Read description before u download\nelse its not my fault\ndont whine in the comments\n\nUse torrent to download\nwebseed for fast download\n\nNote : My first web capture\nso much for missing the show one time\n\nthere were no sources available\n\nFeedback welcome;\nnegative comments will be ignored\n\n[img]http://i.imgur.com/02COqWA.jpg[/img]\n\nI can't do this everytime as it is hectic for a non-UK resident\n\nUK users , get HD 720p @ ~400MB if u can\nIts easiest for u\n\nlet me know if u need help\n\nwatch on BBC Sat &amp; Sun if you don't want to go through the pain\n\n480p -&gt; ~ 260 MB @ 1500 Kbps\nMp3 Stereo 128 Kbps\n24 min duration\n30 fps\n\nhere's wat I did ,for others to follow\n\nUsed TunnelBear UK VPN n BBC iplayer to download\n\n(tried 1080p , filesize went to 8 GB..failed)\n\nrecaptured 480p screen\nplayed n captured using Active Presenter : 340 MB Video\n20 MB MP3 audio @ 128 Kbps\n\nConverted only 480p video to 480p HEVC @ CRF 27 to reduce size retaining quality(believe me , both look same ;also my network is slow)\ntook 1 hr to encode\nResulted in 90 MB video\n\nConverted XML Subs to SRT using Subtitle Edit\nif u want to get HD, try 720p 420 MB @ 2800 Kbps\n\nMuxed all, \n\ncould n't remove DRM ,had to capture\nif you know how to remove DRM ,feel free to PM n let me know \n\nI tried my max to retain quality\n\nThanks tofor the idea\n\nClick -\nThe Boston Startups\nClick steps outside of the gates of MIT into the city which is its host and finds out how much of the research inspired by the university is now entering the commercial space.\n\nFirst shown: 1.30am 28 Feb 2015\n\n\nVideo: HVC1 830x468 30fps [V: 480p HEVC [eng] (hevc main, yuv420p, 830x468) \nAudio: MP3 44100Hz stereo 118kbps [A: 128 Kbps MP3 [eng] (mp3, 44100 Hz, stereo, 118 kb/s) \nSubtitle: UTF-8 [S: English [eng] (srt) \nSubtitle: UTF-8 [S: No subtitles]\n\nMediaInfo\n\n[spoiler]\nUnique ID : 251975249576520404334502951165114160786 (0xBD90AAF7966C2CDF90EA566A80F79692)\nComplete name : BBC.Click.2015.02.28.Boston.Startups.480p.WebRip.x265.HEVC-AuP.mkv\nFormat : Matroska\nFormat version : Version 4 / Version 2\nFile size : 112 MiB\nDuration : 24mn 1s\nOverall bit rate mode : Variable\nOverall bit rate : 653 Kbps\nMovie name : Ripped &amp; Encoded by AuP | BBC Click 2015 02 28 Boston Startups 480p WebRip x264-AuP\nEncoded date : UTC 2015-03-06 01:18:40\nWriting application : mkvmerge v7.7.0 ('Six Voices') 32bit built on Feb 28 2015 23:23:00\nWriting library : Lavf55.12.0\nAttachements : cover.jpg\nDURATION : 00:24:00.993000000\nNUMBER_OF_FRAMES : 55163\nNUMBER_OF_BYTES : 23055646\n_STATISTICS_WRITING_APP : mkvmerge v7.7.0 ('Six Voices') 32bit built on Feb 28 2015 23:23:00\n_STATISTICS_WRITING_DATE_UTC : 2015-03-06 01:18:40\n_STATISTICS_TAGS : BPS DURATION NUMBER_OF_FRAMES NUMBER_OF_BYTES\n\nVideo\nID : 1\nFormat : HEVC\nFormat/Info : High Efficiency Video Coding\nFormat profile : &lt;a class=&quot;__cf_email__&quot; href=&quot;/cdn-cgi/l/email-protection&quot; data-cfemail=&quot;90ddf1f9fed0dca3bea0&quot;&gt;[email&amp;#160;protected]&lt;/a&gt;&lt;script cf-hash='f9e31' type=&quot;text/javascript&quot;&gt;\n/* &lt;![CDATA[ */!function(){try{var t=&quot;currentScript&quot;in document?document.currentScript:function(){for(var t=document.getElementsByTagName(&quot;script&quot;),e=t.length;e--;)if(t[e].getAttribute(&quot;cf-hash&quot;))return t[e]}();if(t&amp;&amp;t.previousSibling){var e,r,n,i,c=t.previousSibling,a=c.getAttribute(&quot;data-cfemail&quot;);if(a){for(e=&quot;&quot;,r=parseInt(a.substr(0,2),16),n=2;a.length-n;n+=2)i=parseInt(a.substr(n,2),16)^r,e+=String.fromCharCode(i);e=document.createTextNode(e),c.parentNode.replaceChild(e,c)}}}catch(u){}}();/* ]]&gt; */&lt;/script&gt;\nCodec ID : V_MPEGH/ISO/HEVC\nDuration : 24mn 1s\nBit rate : 512 Kbps\nWidth : 830 pixels\nHeight : 468 pixels\nDisplay aspect ratio : 16:9\nFrame rate mode : Constant\nFrame rate : 30.000 fps\nColor space : YUV\nChroma subsampling : 4:2:0\nBit depth : 8 bits\nBits/(Pixel*Frame) : 0.044\nStream size : 88.0 MiB (78%)\nTitle : 480p HEVC\nWriting library : x265 1.4:[Windows][GCC 4.7.0][32 bit]\nEncoding settings : wpp / ctu=64 / tu-intra-depth=1 / tu-inter-depth=1 / me=1 / subme=2 / merange=57 / no-rect / no-amp / max-merge=2 / temporal-mvp / no-early-skip / no-fast-cbf / rdpenalty=0 / no-tskip / no-tskip-fast / strong-intra-smoothing / no-lossless / no-cu-lossless / no-constrained-intra / no-fast-intra / open-gop / interlace=0 / keyint=300 / min-keyint=30 / scenecut=40 / rc-lookahead=20 / bframes=4 / bframe-bias=0 / b-adapt=2 / ref=3 / weightp / no-weightb / aq-mode=2 / aq-strength=1.00 / cbqpoffs=0 / crqpoffs=0 / rd=3 / psy-rd=0.00 / psy-rdoq=0.00 / signhide / lft / sao / no-sao-non-deblock / b-pyramid / cutree / rc=crf / crf=27.0 / qcomp=0.60 / qpmin=0 / qpmax=51 / qpstep=4 / ipratio=1.40 / pbratio=1.30\nLanguage : English\nDefault : Yes\nForced : No\nColor primaries : BT.601 NTSC\nTransfer characteristics : BT.709\nMatrix coefficients : BT.601\nColor range : Limited\nDURATION : 00:24:00.933000000\nNUMBER_OF_FRAMES : 43228\nNUMBER_OF_BYTES : 94174649\n_STATISTICS_WRITING_APP : mkvmerge v7.7.0 ('Six Voices') 32bit built on Feb 28 2015 23:23:00\n_STATISTICS_WRITING_DATE_UTC : 2015-03-06 01:18:40\n_STATISTICS_TAGS : BPS DURATION NUMBER_OF_FRAMES NUMBER_OF_BYTES\n\nAudio\nID : 3\nFormat : MPEG Audio\nFormat version : Version 1\nFormat profile : Layer 3\nMode : Joint stereo\nMode extension : MS Stereo\nCodec ID : A_MPEG/L3\nCodec ID/Hint : MP3\nDuration : 24mn 1s\nBit rate mode : Variable\nBit rate : 128 Kbps\nChannel(s) : 2 channels\nSampling rate : 44.1 KHz\nCompression mode : Lossy\nDelay relative to video : -67ms\nStream size : 22.0 MiB (20%)\nTitle : 128 Kbps MP3\nWriting library : LAME3.99.5\nLanguage : English\nDefault : Yes\nForced : No\n\nText\nID : 2\nFormat : UTF-8\nCodec ID : S_TEXT/UTF8\nCodec ID/Info : UTF-8 Plain Text\nTitle : English\nLanguage : English\nDefault : Yes\nForced : No\n\n[/spoiler]\n\n-AuP","torrent":{"xt":"urn:btih:78613a07fb6c5217c8e2f9f157ec83f98dcc4a2e","amp;dn":"BBC+Click+2015+02+28+Boston+Startups+480p+WebRip+x265+HEVC-AuP","amp;tr":["udp%3A%2F%2Ftracker.openbittorrent.com%3A80","udp%3A%2F%2Fopen.demonii.com%3A1337","udp%3A%2F%2Ftracker.coppersurfer.tk%3A6969","udp%3A%2F%2Fexodus.desync.com%3A6969"],"infoHash":"78613a07fb6c5217c8e2f9f157ec83f98dcc4a2e","infoHashBuffer":{"type":"Buffer","data":[120,97,58,7,251,108,82,23,200,226,249,241,87,236,131,249,141,204,74,46]},"announce":[],"urlList":[]}}